<svg width="1830" height="589" viewBox="0 0 1830 589" fill="none" xmlns="http://www.w3.org/2000/svg">
<path d="M282.163 468.98C257.843 468.98 236.563 463.54 218.323 452.66C200.083 441.78 185.843 426.26 175.603 406.1C165.683 385.94 160.723 362.42 160.723 335.54C160.723 308.34 165.683 284.82 175.603 264.98C185.843 245.14 200.083 229.78 218.323 218.9C236.563 207.7 257.843 202.1 282.163 202.1C306.483 202.1 327.603 207.7 345.523 218.9C363.763 229.78 377.843 245.14 387.763 264.98C398.003 284.82 403.123 308.34 403.123 335.54C403.123 362.42 398.003 385.94 387.763 406.1C377.843 426.26 363.763 441.78 345.523 452.66C327.603 463.54 306.483 468.98 282.163 468.98ZM282.163 424.82C303.603 424.82 320.243 416.98 332.083 401.3C344.243 385.3 350.323 363.38 350.323 335.54C350.323 307.7 344.243 285.94 332.083 270.26C320.243 254.26 303.603 246.26 282.163 246.26C260.723 246.26 243.923 254.26 231.763 270.26C219.603 285.94 213.523 307.7 213.523 335.54C213.523 363.38 219.603 385.3 231.763 401.3C243.923 416.98 260.723 424.82 282.163 424.82Z" fill="black"/>
<path d="M821.715 468.98C797.075 468.98 775.635 463.54 757.395 452.66C739.475 441.78 725.395 426.26 715.155 406.1C705.235 385.94 700.275 362.42 700.275 335.54C700.275 308.66 705.235 285.3 715.155 265.46C725.395 245.3 739.475 229.78 757.395 218.9C775.635 207.7 797.075 202.1 821.715 202.1C842.195 202.1 860.435 205.78 876.435 213.14C892.755 220.18 906.035 230.58 916.275 244.34C926.515 258.1 932.915 274.9 935.475 294.74L907.111 296.287C893.245 297.043 881.896 286.575 874.968 274.54C871.612 268.709 867.301 263.762 862.035 259.7C851.155 250.74 837.715 246.26 821.715 246.26C800.275 246.26 783.475 254.26 771.315 270.26C759.155 285.94 753.075 307.7 753.075 335.54C753.075 363.38 759.155 385.3 771.315 401.3C783.475 416.98 800.275 424.82 821.715 424.82C837.715 424.82 851.155 420.34 862.035 411.38C867.784 406.617 872.394 400.632 875.866 393.424C881.964 380.768 893.469 370.208 907.496 370.973L935.475 372.5C932.915 392.02 926.515 408.98 916.275 423.38C906.355 437.78 893.235 448.98 876.915 456.98C860.915 464.98 842.515 468.98 821.715 468.98Z" fill="black"/>
</svg>